{
  "asset": {
    "version": "2.0",
    "generator": "3dpea GLTFExporter"
  },
  "scenes": [
    {
      "name": "AuxScene",
      "nodes": [
        3
      ]
    }
  ],
  "scene": 0,
  "nodes": [
    {
      "name": "Cube001",
      "mesh": 0
    },
    {
      "name": "Cube001_1",
      "mesh": 1
    },
    {
      "matrix": [
        0.8130204915758412,
        -0.45799720923864484,
        0.359494419352405,
        0,
        0.5821325149655046,
        0.6278362685739207,
        -0.5166656140584251,
        0,
        0.010927773599707535,
        0.6293331216931506,
        0.7770588181229723,
        0,
        -0.43416038155555725,
        1.0220887660980225,
        -0.3169216215610504,
        1
      ],
      "name": "Cube",
      "extras": {
        "name": "Cube"
      },
      "children": [
        0,
        1
      ]
    },
    {
      "name": "Kitkat",
      "children": [
        2
      ]
    }
  ],
  "bufferViews": [
    {
      "buffer": 0,
      "byteOffset": 0,
      "byteLength": 19044,
      "target": 34962,
      "byteStride": 12
    },
    {
      "buffer": 0,
      "byteOffset": 19044,
      "byteLength": 19044,
      "target": 34962,
      "byteStride": 12
    },
    {
      "buffer": 0,
      "byteOffset": 38088,
      "byteLength": 12696,
      "target": 34962,
      "byteStride": 8
    },
    {
      "buffer": 0,
      "byteOffset": 50784,
      "byteLength": 6432,
      "target": 34963
    },
    {
      "buffer": 0,
      "byteOffset": 57216,
      "byteLength": 504,
      "target": 34962,
      "byteStride": 12
    },
    {
      "buffer": 0,
      "byteOffset": 57720,
      "byteLength": 504,
      "target": 34962,
      "byteStride": 12
    },
    {
      "buffer": 0,
      "byteOffset": 58224,
      "byteLength": 336,
      "target": 34962,
      "byteStride": 8
    },
    {
      "buffer": 0,
      "byteOffset": 58560,
      "byteLength": 192,
      "target": 34963
    }
  ],
  "buffers": [
    {
      "byteLength": 58752,
      "uri": "data:application/octet-stream;base64,"
    }
  ],
  "accessors": [
    {
      "bufferView": 0,
      "componentType": 5126,
      "count": 1587,
      "max": [
        0.6175154447555542,
        1.0270092487335205,
        0.000008702278137207031
      ],
      "min": [
        -0.562358021736145,
        -0.9722651839256287,
        -0.20594066381454468
      ],
      "type": "VEC3"
    },
    {
      "bufferView": 1,
      "componentType": 5126,
      "count": 1587,
      "max": [
        0.9986051321029663,
        0.9926047325134277,
        1
      ],
      "min": [
        -0.9981375336647034,
        -0.9943829774856567,
        -1
      ],
      "type": "VEC3"
    },
    {
      "bufferView": 2,
      "componentType": 5126,
      "count": 1587,
      "max": [
        1.13560152053833,
        1.8625024557113647
      ],
      "min": [
        0.05860814452171326,
        -1.1034660339355469
      ],
      "type": "VEC2"
    },
    {
      "bufferView": 3,
      "componentType": 5123,
      "count": 3216,
      "max": [
        1586
      ],
      "min": [
        0
      ],
      "type": "SCALAR"
    },
    {
      "bufferView": 4,
      "componentType": 5126,
      "count": 42,
      "max": [
        0.42287132143974304,
        0.7687543630599976,
        -0.19745951890945435
      ],
      "min": [
        -0.3806939423084259,
        -0.708609938621521,
        -0.20594066381454468
      ],
      "type": "VEC3"
    },
    {
      "bufferView": 5,
      "componentType": 5126,
      "count": 42,
      "max": [
        0,
        0.027900299057364464,
        -0.9996107220649719
      ],
      "min": [
        0,
        -0.01579960808157921,
        -0.9999994039535522
      ],
      "type": "VEC3"
    },
    {
      "bufferView": 6,
      "componentType": 5126,
      "count": 42,
      "max": [
        0.7901431918144226,
        0.946845531463623
      ],
      "min": [
        0.18523134291172028,
        0.5957413911819458
      ],
      "type": "VEC2"
    },
    {
      "bufferView": 7,
      "componentType": 5123,
      "count": 96,
      "max": [
        41
      ],
      "min": [
        0
      ],
      "type": "SCALAR"
    }
  ],
  "materials": [
    {
      "pbrMetallicRoughness": {
        "metallicFactor": 0.752293586730957,
        "roughnessFactor": 0.09724770486354828,
        "baseColorTexture": {
          "index": 0
        }
      },
      "doubleSided": true,
      "name": "Material.001"
    },
    {
      "pbrMetallicRoughness": {
        "metallicFactor": 1,
        "roughnessFactor": 0.27981650829315186,
        "baseColorTexture": {
          "index": 1
        }
      },
      "doubleSided": true,
      "name": "Material.003"
    }
  ],
  "textures": [
    {
      "sampler": 0,
      "source": 0
    },
    {
      "sampler": 1,
      "source": 1
    }
  ],
  "samplers": [
    {
      "magFilter": 9729,
      "minFilter": 9987,
      "wrapS": 10497,
      "wrapT": 10497
    },
    {
      "magFilter": 9729,
      "minFilter": 9987,
      "wrapS": 10497,
      "wrapT": 10497
    }
  ],
  "images": [
    {
      "mimeType": "image/png",
      "uri": "data:image/png;base64,"
    },
    {
      "mimeType": "image/png",
      "uri": "data:image/png;base64,"
    }
  ],
  "meshes": [
    {
      "primitives": [
        {
          "mode": 4,
          "attributes": {
            "POSITION": 0,
            "NORMAL": 1,
            "TEXCOORD_0": 2
          },
          "indices": 3,
          "material": 0
        }
      ]
    },
    {
      "primitives": [
        {
          "mode": 4,
          "attributes": {
            "POSITION": 4,
            "NORMAL": 5,
            "TEXCOORD_0": 6
          },
          "indices": 7,
          "material": 1
        }
      ]
    }
  ]
}