{
  "asset": {
    "version": "2.0",
    "generator": "3dpea GLTFExporter"
  },
  "scenes": [
    {
      "name": "AuxScene",
      "nodes": [
        4
      ]
    }
  ],
  "scene": 0,
  "nodes": [
    {
      "matrix": [
        1,
        0,
        0,
        0,
        0,
        1,
        0,
        0,
        0,
        0,
        0.41971662640571605,
        0,
        0.0009155273436931566,
        -21.7515106201172,
        9.908947944641117,
        1
      ],
      "name": "chili_sauce",
      "extras": {
        "transformData": {
          "inheritType": 1,
          "eulerOrder": "ZYX",
          "translation": [
            0.00091552734375,
            -21.751510620117188,
            9.908947944641113
          ],
          "scale": [
            1,
            1,
            0.419716626405716
          ],
          "parentMatrix": {
            "elements": [
              0.1,
              0,
              0,
              0,
              0,
              2.2204460492503132e-17,
              -0.1,
              0,
              0,
              0.1,
              2.2204460492503132e-17,
              0,
              -41.73009490966797,
              0.651739776134491,
              10.259675979614258,
              1
            ]
          },
          "parentMatrixWorld": {
            "elements": [
              0.1,
              0,
              0,
              0,
              0,
              2.2204460492503132e-17,
              -0.1,
              0,
              0,
              0.1,
              2.2204460492503132e-17,
              0,
              -41.73009490966797,
              0.651739776134491,
              10.259675979614258,
              1
            ]
          }
        }
      },
      "mesh": 0
    },
    {
      "matrix": [
        1,
        0,
        0,
        0,
        0,
        1,
        0,
        0,
        0,
        0,
        1,
        0,
        0.0009155273436931566,
        -0.00016784667970171085,
        -7.948412895202636,
        1
      ],
      "name": "pizza",
      "extras": {
        "transformData": {
          "inheritType": 1,
          "eulerOrder": "ZYX",
          "translation": [
            0.00091552734375,
            -0.0001678466796875,
            -7.948412895202637
          ],
          "parentMatrix": {
            "elements": [
              0.1,
              0,
              0,
              0,
              0,
              2.2204460492503132e-17,
              -0.1,
              0,
              0,
              0.1,
              2.2204460492503132e-17,
              0,
              -41.73009490966797,
              0.651739776134491,
              10.259675979614258,
              1
            ]
          },
          "parentMatrixWorld": {
            "elements": [
              0.1,
              0,
              0,
              0,
              0,
              2.2204460492503132e-17,
              -0.1,
              0,
              0,
              0.1,
              2.2204460492503132e-17,
              0,
              -41.73009490966797,
              0.651739776134491,
              10.259675979614258,
              1
            ]
          }
        }
      },
      "mesh": 1
    },
    {
      "matrix": [
        1,
        0,
        0,
        0,
        0,
        1,
        0,
        0,
        0,
        0,
        0.41971662640571605,
        0,
        0.0009155273436931566,
        35.3813018798828,
        9.908947944641113,
        1
      ],
      "name": "chili_sauce",
      "extras": {
        "transformData": {
          "inheritType": 1,
          "eulerOrder": "ZYX",
          "translation": [
            0.00091552734375,
            35.38130187988281,
            9.908947944641113
          ],
          "scale": [
            1,
            1,
            0.419716626405716
          ],
          "parentMatrix": {
            "elements": [
              0.1,
              0,
              0,
              0,
              0,
              2.2204460492503132e-17,
              -0.1,
              0,
              0,
              0.1,
              2.2204460492503132e-17,
              0,
              -41.73009490966797,
              0.651739776134491,
              10.259675979614258,
              1
            ]
          },
          "parentMatrixWorld": {
            "elements": [
              0.1,
              0,
              0,
              0,
              0,
              2.2204460492503132e-17,
              -0.1,
              0,
              0,
              0.1,
              2.2204460492503132e-17,
              0,
              -41.73009490966797,
              0.651739776134491,
              10.259675979614258,
              1
            ]
          }
        }
      },
      "mesh": 2
    },
    {
      "matrix": [
        -0.6510049152831884,
        -3.4350047365528584,
        0,
        0,
        3.4350047365528584,
        -0.6510049152831884,
        0,
        0,
        0,
        0,
        3.4961500167846706,
        0,
        0.0009155273436931566,
        -0.00016784667970171085,
        -11.046311378479004,
        1
      ],
      "name": "Disk5",
      "extras": {
        "transformData": {
          "inheritType": 1,
          "eulerOrder": "ZYX",
          "translation": [
            0.00091552734375,
            -0.0001678466796875,
            -11.046311378479004
          ],
          "rotation": [
            0,
            0,
            -100.731466376816
          ],
          "scale": [
            3.49615001678467,
            3.49615001678467,
            3.49615001678467
          ],
          "parentMatrix": {
            "elements": [
              0.1,
              0,
              0,
              0,
              0,
              2.2204460492503132e-17,
              -0.1,
              0,
              0,
              0.1,
              2.2204460492503132e-17,
              0,
              -41.73009490966797,
              0.651739776134491,
              10.259675979614258,
              1
            ]
          },
          "parentMatrixWorld": {
            "elements": [
              0.1,
              0,
              0,
              0,
              0,
              2.2204460492503132e-17,
              -0.1,
              0,
              0,
              0.1,
              2.2204460492503132e-17,
              0,
              -41.73009490966797,
              0.651739776134491,
              10.259675979614258,
              1
            ]
          }
        }
      },
      "mesh": 3
    },
    {
      "matrix": [
        0.1,
        0,
        0,
        0,
        0,
        2.2204460492503132e-17,
        -0.1,
        0,
        0,
        0.1,
        2.2204460492503132e-17,
        0,
        -41.73009490966797,
        0.651739776134491,
        10.259675979614258,
        1
      ],
      "name": "Pizza",
      "extras": {
        "transformData": {
          "inheritType": 1,
          "eulerOrder": "ZYX",
          "translation": [
            -41.73009490966797,
            0.651739776134491,
            10.259675979614258
          ],
          "rotation": [
            -90,
            0,
            0
          ],
          "scale": [
            0.1,
            0.1,
            0.1
          ],
          "parentMatrix": {
            "elements": [
              1,
              0,
              0,
              0,
              0,
              1,
              0,
              0,
              0,
              0,
              1,
              0,
              0,
              0,
              0,
              1
            ]
          },
          "parentMatrixWorld": {
            "elements": [
              1,
              0,
              0,
              0,
              0,
              1,
              0,
              0,
              0,
              0,
              1,
              0,
              0,
              0,
              0,
              1
            ]
          }
        }
      },
      "children": [
        0,
        1,
        2,
        3
      ]
    }
  ],
  "bufferViews": [
    {
      "buffer": 0,
      "byteOffset": 0,
      "byteLength": 57456,
      "target": 34962,
      "byteStride": 12
    },
    {
      "buffer": 0,
      "byteOffset": 57456,
      "byteLength": 57456,
      "target": 34962,
      "byteStride": 12
    },
    {
      "buffer": 0,
      "byteOffset": 114912,
      "byteLength": 38304,
      "target": 34962,
      "byteStride": 8
    },
    {
      "buffer": 0,
      "byteOffset": 153216,
      "byteLength": 11232,
      "target": 34962,
      "byteStride": 12
    },
    {
      "buffer": 0,
      "byteOffset": 164448,
      "byteLength": 11232,
      "target": 34962,
      "byteStride": 12
    },
    {
      "buffer": 0,
      "byteOffset": 175680,
      "byteLength": 7488,
      "target": 34962,
      "byteStride": 8
    },
    {
      "buffer": 0,
      "byteOffset": 183168,
      "byteLength": 57456,
      "target": 34962,
      "byteStride": 12
    },
    {
      "buffer": 0,
      "byteOffset": 240624,
      "byteLength": 57456,
      "target": 34962,
      "byteStride": 12
    },
    {
      "buffer": 0,
      "byteOffset": 298080,
      "byteLength": 38304,
      "target": 34962,
      "byteStride": 8
    },
    {
      "buffer": 0,
      "byteOffset": 336384,
      "byteLength": 38880,
      "target": 34962,
      "byteStride": 12
    },
    {
      "buffer": 0,
      "byteOffset": 375264,
      "byteLength": 38880,
      "target": 34962,
      "byteStride": 12
    },
    {
      "buffer": 0,
      "byteOffset": 414144,
      "byteLength": 25920,
      "target": 34962,
      "byteStride": 8
    }
  ],
  "buffers": [
    {
      "byteLength": 440064,
      "uri": "data:application/octet-stream;base64,"
    }
  ],
  "accessors": [
    {
      "bufferView": 0,
      "componentType": 5126,
      "count": 4788,
      "max": [
        60.54302215576172,
        25.861549377441406,
        2.70983624458313
      ],
      "min": [
        -65.49202728271484,
        -26.689363479614258,
        -11.037384033203125
      ],
      "type": "VEC3"
    },
    {
      "bufferView": 1,
      "componentType": 5126,
      "count": 4788,
      "max": [
        0.9770693778991699,
        0.9967942833900452,
        0.9987896084785461
      ],
      "min": [
        -0.9859834909439087,
        -0.9940133094787598,
        -0.9987557530403137
      ],
      "type": "VEC3"
    },
    {
      "bufferView": 2,
      "componentType": 5126,
      "count": 4788,
      "max": [
        0.6130838394165039,
        0.304956316947937
      ],
      "min": [
        0.3580837845802307,
        0.049956321716308594
      ],
      "type": "VEC2"
    },
    {
      "bufferView": 3,
      "componentType": 5126,
      "count": 936,
      "max": [
        97.55802154541016,
        97.55802154541016,
        13.878913879394531
      ],
      "min": [
        -97.55802154541016,
        -97.55802154541016,
        0
      ],
      "type": "VEC3"
    },
    {
      "bufferView": 4,
      "componentType": 5126,
      "count": 936,
      "max": [
        1,
        1,
        1
      ],
      "min": [
        -1,
        -1,
        -1
      ],
      "type": "VEC3"
    },
    {
      "bufferView": 5,
      "componentType": 5126,
      "count": 936,
      "max": [
        0.9930558204650879,
        0.9872398972511292
      ],
      "min": [
        0.01580599881708622,
        0.009889483451843262
      ],
      "type": "VEC2"
    },
    {
      "bufferView": 6,
      "componentType": 5126,
      "count": 4788,
      "max": [
        60.54302215576172,
        25.861549377441406,
        2.70983624458313
      ],
      "min": [
        -65.49202728271484,
        -26.689363479614258,
        -11.037384033203125
      ],
      "type": "VEC3"
    },
    {
      "bufferView": 7,
      "componentType": 5126,
      "count": 4788,
      "max": [
        0.9770693778991699,
        0.9967942833900452,
        0.9987896084785461
      ],
      "min": [
        -0.9859834909439087,
        -0.9940133094787598,
        -0.9987557530403137
      ],
      "type": "VEC3"
    },
    {
      "bufferView": 8,
      "componentType": 5126,
      "count": 4788,
      "max": [
        0.6130838394165039,
        0.304956316947937
      ],
      "min": [
        0.3580837845802307,
        0.049956321716308594
      ],
      "type": "VEC2"
    },
    {
      "bufferView": 9,
      "componentType": 5126,
      "count": 3240,
      "max": [
        35.5098876953125,
        35.505462646484375,
        1.0532898902893066
      ],
      "min": [
        -35.5098876953125,
        -35.50598907470703,
        0
      ],
      "type": "VEC3"
    },
    {
      "bufferView": 10,
      "componentType": 5126,
      "count": 3240,
      "max": [
        0.9896886348724365,
        0.9895613789558411,
        1
      ],
      "min": [
        -0.9896891713142395,
        -0.9898166656494141,
        -1
      ],
      "type": "VEC3"
    },
    {
      "bufferView": 11,
      "componentType": 5126,
      "count": 3240,
      "max": [
        0.5040474534034729,
        0.9799999594688416
      ],
      "min": [
        0.019999999552965164,
        0.019999999552965164
      ],
      "type": "VEC2"
    }
  ],
  "materials": [
    {
      "pbrMetallicRoughness": {
        "metallicFactor": 0,
        "roughnessFactor": 0.99609375,
        "baseColorTexture": {
          "index": 0
        }
      },
      "name": "Material #3"
    },
    {
      "pbrMetallicRoughness": {
        "metallicFactor": 0,
        "roughnessFactor": 0.99609375,
        "baseColorTexture": {
          "index": 1
        }
      },
      "name": "pizza"
    },
    {
      "pbrMetallicRoughness": {
        "metallicFactor": 0,
        "roughnessFactor": 0.99609375,
        "baseColorTexture": {
          "index": 0
        }
      },
      "name": "Material #3"
    },
    {
      "pbrMetallicRoughness": {
        "metallicFactor": 0,
        "roughnessFactor": 0.99609375,
        "baseColorTexture": {
          "index": 2
        }
      },
      "name": "12 - Default"
    }
  ],
  "textures": [
    {
      "sampler": 0,
      "source": 0,
      "name": "Map #46"
    },
    {
      "sampler": 1,
      "source": 1,
      "name": "Map #40"
    },
    {
      "sampler": 2,
      "source": 2,
      "name": "Map #12"
    }
  ],
  "samplers": [
    {
      "magFilter": 9729,
      "minFilter": 9987,
      "wrapS": 10497,
      "wrapT": 10497
    },
    {
      "magFilter": 9729,
      "minFilter": 9987,
      "wrapS": 10497,
      "wrapT": 10497
    },
    {
      "magFilter": 9729,
      "minFilter": 9987,
      "wrapS": 10497,
      "wrapT": 10497
    }
  ],
  "images": [
    {
      "mimeType": "image/png",
      "uri": "data:image/png;base64,"
    },
    {
      "mimeType": "image/png",
      "uri": "data:image/png;base64,"
    },
    {
      "mimeType": "image/png",
      "uri": "data:image/png;base64,"
    }
  ],
  "meshes": [
    {
      "primitives": [
        {
          "mode": 4,
          "attributes": {
            "POSITION": 0,
            "NORMAL": 1,
            "TEXCOORD_0": 2
          },
          "material": 0
        }
      ]
    },
    {
      "primitives": [
        {
          "mode": 4,
          "attributes": {
            "POSITION": 3,
            "NORMAL": 4,
            "TEXCOORD_0": 5
          },
          "material": 1
        }
      ]
    },
    {
      "primitives": [
        {
          "mode": 4,
          "attributes": {
            "POSITION": 6,
            "NORMAL": 7,
            "TEXCOORD_0": 8
          },
          "material": 2
        }
      ]
    },
    {
      "primitives": [
        {
          "mode": 4,
          "attributes": {
            "POSITION": 9,
            "NORMAL": 10,
            "TEXCOORD_0": 11
          },
          "material": 3
        }
      ]
    }
  ]
}