{"accessors" : [{"bufferView" : 0, "byteOffset" : 0, "componentType" : 5123, "count" : 4788, "type" : "SCALAR", "max" : [4787], "min" : [0]}, {"bufferView" : 1, "byteOffset" : 0, "componentType" : 5126, "count" : 4788, "type" : "VEC3", "max" : [60.54302215576172, 25.861549377441406, 2.70983624458313], "min" : [-65.49202728271484, -26.689363479614258, -11.037384033203125], "name" : "POSITION"}, {"bufferView" : 1, "byteOffset" : 12, "componentType" : 5126, "count" : 4788, "type" : "VEC3", "max" : [0.9770734310150146, 0.9967986941337585, 0.99879390001297], "min" : [-0.9859877228736877, -0.9940176010131836, -0.9987601637840271], "name" : "NORMAL"}, {"bufferView" : 1, "byteOffset" : 24, "componentType" : 5126, "count" : 4788, "type" : "VEC2", "max" : [0.6130838394165039, 0.9500436782836914], "min" : [0.3580837845802307, 0.695043683052063], "name" : "TEXCOORD_0"}, {"bufferView" : 0, "byteOffset" : 9576, "componentType" : 5123, "count" : 936, "type" : "SCALAR", "max" : [935], "min" : [0]}, {"bufferView" : 3, "byteOffset" : 0, "componentType" : 5126, "count" : 936, "type" : "VEC3", "max" : [97.55802154541016, 97.55802154541016, 13.878913879394531], "min" : [-97.55802154541016, -97.55802154541016, 0], "name" : "POSITION"}, {"bufferView" : 3, "byteOffset" : 12, "componentType" : 5126, "count" : 936, "type" : "VEC3", "max" : [1.0000044107437134, 1.0000044107437134, 1.0000044107437134], "min" : [-1.0000044107437134, -1.0000044107437134, -1.0000044107437134], "name" : "NORMAL"}, {"bufferView" : 3, "byteOffset" : 24, "componentType" : 5126, "count" : 936, "type" : "VEC2", "max" : [0.9930558204650879, 0.9901105165481567], "min" : [0.01580599881708622, 0.01276010274887085], "name" : "TEXCOORD_0"}, {"bufferView" : 0, "byteOffset" : 11448, "componentType" : 5123, "count" : 4788, "type" : "SCALAR", "max" : [4787], "min" : [0]}, {"bufferView" : 5, "byteOffset" : 0, "componentType" : 5126, "count" : 4788, "type" : "VEC3", "max" : [60.54302215576172, 25.861549377441406, 2.70983624458313], "min" : [-65.49202728271484, -26.689363479614258, -11.037384033203125], "name" : "POSITION"}, {"bufferView" : 5, "byteOffset" : 12, "componentType" : 5126, "count" : 4788, "type" : "VEC3", "max" : [0.9770734310150146, 0.9967986941337585, 0.99879390001297], "min" : [-0.9859877228736877, -0.9940176010131836, -0.9987601637840271], "name" : "NORMAL"}, {"bufferView" : 5, "byteOffset" : 24, "componentType" : 5126, "count" : 4788, "type" : "VEC2", "max" : [0.6130838394165039, 0.9500436782836914], "min" : [0.3580837845802307, 0.695043683052063], "name" : "TEXCOORD_0"}, {"bufferView" : 0, "byteOffset" : 21024, "componentType" : 5123, "count" : 3240, "type" : "SCALAR", "max" : [3239], "min" : [0]}, {"bufferView" : 6, "byteOffset" : 0, "componentType" : 5126, "count" : 3240, "type" : "VEC3", "max" : [35.5098876953125, 35.505462646484375, 1.0532898902893066], "min" : [-35.5098876953125, -35.50598907470703, 0], "name" : "POSITION"}, {"bufferView" : 6, "byteOffset" : 12, "componentType" : 5126, "count" : 3240, "type" : "VEC3", "max" : [0.9896928668022156, 0.9895656108856201, 1.0000044107437134], "min" : [-0.9896934032440186, -0.9898210167884827, -1.0000044107437134], "name" : "NORMAL"}, {"bufferView" : 6, "byteOffset" : 24, "componentType" : 5126, "count" : 3240, "type" : "VEC2", "max" : [0.5040474534034729, 0.9800000190734863], "min" : [0.019999999552965164, 0.020000040531158447], "name" : "TEXCOORD_0"}], "asset" : {"generator" : "Aspose.3D 24.2.0", "version" : "2.0"}, "buffers" : [{"uri" : "buffer.bin", "byteLength" : 746016}], "bufferViews" : [{"buffer" : 0, "byteOffset" : 0, "byteLength" : 27504, "target" : 34963}, {"buffer" : 0, "byteOffset" : 27508, "byteLength" : 153216, "byteStride" : 32, "target" : 34962}, {"buffer" : 0, "byteOffset" : 180728, "byteLength" : 39860}, {"buffer" : 0, "byteOffset" : 220592, "byteLength" : 29952, "byteStride" : 32, "target" : 34962}, {"buffer" : 0, "byteOffset" : 250548, "byteLength" : 207689}, {"buffer" : 0, "byteOffset" : 458240, "byteLength" : 153216, "byteStride" : 32, "target" : 34962}, {"buffer" : 0, "byteOffset" : 611460, "byteLength" : 103680, "byteStride" : 32, "target" : 34962}, {"buffer" : 0, "byteOffset" : 715144, "byteLength" : 30869}], "images" : [{"mimeType" : "image/jpeg", "bufferView" : 2}, {"mimeType" : "image/jpeg", "bufferView" : 4}, {"mimeType" : "image/jpeg", "bufferView" : 7}], "materials" : [{"name" : "Material #3", "pbrMetallicRoughness" : {"baseColorFactor" : [1, 1, 1, 1], "baseColorTexture" : {"index" : 0, "texCoord" : 0}, "metallicFactor" : 1, "roughnessFactor" : 1}, "emissiveFactor" : [0, 0, 0], "alphaMode" : "OPAQUE", "doubleSided" : false}, {"name" : "pizza", "pbrMetallicRoughness" : {"baseColorFactor" : [1, 1, 1, 1], "baseColorTexture" : {"index" : 1, "texCoord" : 0}, "metallicFactor" : 1, "roughnessFactor" : 1}, "emissiveFactor" : [0, 0, 0], "alphaMode" : "OPAQUE", "doubleSided" : false}, {"name" : "Material #3", "pbrMetallicRoughness" : {"baseColorFactor" : [1, 1, 1, 1], "baseColorTexture" : {"index" : 0, "texCoord" : 0}, "metallicFactor" : 1, "roughnessFactor" : 1}, "emissiveFactor" : [0, 0, 0], "alphaMode" : "OPAQUE", "doubleSided" : false}, {"name" : "12 - Default", "pbrMetallicRoughness" : {"baseColorFactor" : [1, 1, 1, 1], "baseColorTexture" : {"index" : 2, "texCoord" : 0}, "metallicFactor" : 1, "roughnessFactor" : 1}, "emissiveFactor" : [0, 0, 0], "alphaMode" : "OPAQUE", "doubleSided" : false}], "meshes" : [{"primitives" : [{"attributes" : {"POSITION" : 1, "NORMAL" : 2, "TEXCOORD_0" : 3}, "indices" : 0, "material" : 0, "mode" : 4}], "name" : ""}, {"primitives" : [{"attributes" : {"POSITION" : 5, "NORMAL" : 6, "TEXCOORD_0" : 7}, "indices" : 4, "material" : 1, "mode" : 4}], "name" : ""}, {"primitives" : [{"attributes" : {"POSITION" : 9, "NORMAL" : 10, "TEXCOORD_0" : 11}, "indices" : 8, "material" : 2, "mode" : 4}], "name" : ""}, {"primitives" : [{"attributes" : {"POSITION" : 13, "NORMAL" : 14, "TEXCOORD_0" : 15}, "indices" : 12, "material" : 3, "mode" : 4}], "name" : ""}], "nodes" : [{"matrix" : [1, 0, 0, 0, 0, 1, 0, 0, 0, 0, 0.419716626405716, 0, 0.00091552734375, -21.751510620117188, 9.908947944641113, 1], "mesh" : 0, "name" : "chili sauce"}, {"matrix" : [1, 0, 0, 0, 0, 1, 0, 0, 0, 0, 1, 0, 0.00091552734375, -0.0001678466796875, -7.948412895202637, 1], "mesh" : 1, "name" : "pizza"}, {"matrix" : [1, 0, 0, 0, 0, 1, 0, 0, 0, 0, 0.419716626405716, 0, 0.00091552734375, 35.38130187988281, 9.908947944641113, 1], "mesh" : 2, "name" : "chili sauce"}, {"matrix" : [-0.651004915283189, -3.435004736552859, 0, 0, 3.435004736552859, -0.651004915283189, 0, 0, 0, 0, 3.49615001678467, 0, 0.00091552734375, -0.0001678466796875, -11.046311378479004, 1], "mesh" : 3, "name" : "Disk5"}, {"children" : [0, 1, 2, 3], "matrix" : [0.1, 0, 0, 0, 0, 6.123233995736766E-18, -0.1, 0, 0, 0.1, 6.123233995736766E-18, 0, -41.73009490966797, 0.651739776134491, 10.259675979614258, 1], "name" : "pizza"}], "samplers" : [{"magFilter" : 9729, "minFilter" : 9729, "wrapS" : 10497, "wrapT" : 10497}, {"magFilter" : 9729, "minFilter" : 9729, "wrapS" : 10497, "wrapT" : 10497}, {"magFilter" : 9729, "minFilter" : 9729, "wrapS" : 10497, "wrapT" : 10497}], "scene" : 0, "scenes" : [{"nodes" : [4]}], "textures" : [{"sampler" : 0, "source" : 0, "name" : "Map #46"}, {"sampler" : 1, "source" : 1, "name" : "Map #40"}, {"sampler" : 2, "source" : 2, "name" : "Map #12"}]}