{"accessors" : [{"bufferView" : 0, "byteOffset" : 0, "componentType" : 5123, "count" : 21672, "type" : "SCALAR", "max" : [21671], "min" : [0]}, {"bufferView" : 1, "byteOffset" : 0, "componentType" : 5126, "count" : 21672, "type" : "VEC3", "max" : [180.85861206054688, 344.6321105957031, 149.21920776367188], "min" : [-180.85858154296875, 3.436756134033203, -149.21920776367188], "name" : "POSITION"}, {"bufferView" : 1, "byteOffset" : 12, "componentType" : 5126, "count" : 21672, "type" : "VEC3", "max" : [1.0000044107437134, 1.0000044107437134, 1.0000044107437134], "min" : [-1.0000044107437134, -1.0000044107437134, -1.0000044107437134], "name" : "NORMAL"}, {"bufferView" : 1, "byteOffset" : 24, "componentType" : 5126, "count" : 21672, "type" : "VEC2", "max" : [0.9864479899406433, 0.9926598072052002], "min" : [0.015766918659210205, 0.005904555320739746], "name" : "TEXCOORD_0"}], "asset" : {"generator" : "Aspose.3D 24.6.0", "version" : "2.0"}, "buffers" : [{"uri" : "data:application/octet-stream;base64,", "byteLength" : 736856}], "bufferViews" : [{"buffer" : 0, "byteOffset" : 0, "byteLength" : 43344, "target" : 34963}, {"buffer" : 0, "byteOffset" : 43348, "byteLength" : 693504, "byteStride" : 32, "target" : 34962}], "images" : [{"uri" : "C:\\Users\\user\\Desktop\\gift box\\texture\\gift_DefaultMaterial_Normal.png"}, {"uri" : "C:\\Users\\user\\Desktop\\gift box\\texture\\gift_DefaultMaterial_BaseColor.png"}], "materials" : [{"name" : "cartoon gift box", "pbrMetallicRoughness" : {"baseColorFactor" : [1, 1, 1, 1], "baseColorTexture" : {"index" : 1, "texCoord" : 0}, "metallicFactor" : 1, "roughnessFactor" : 1}, "normalTexture" : {"index" : 0, "texCoord" : 0, "scale" : 1}, "emissiveFactor" : [0, 0, 0], "alphaMode" : "OPAQUE", "doubleSided" : false}], "meshes" : [{"primitives" : [{"attributes" : {"POSITION" : 1, "NORMAL" : 2, "TEXCOORD_0" : 3}, "indices" : 0, "material" : 0, "mode" : 4}], "name" : "Cube.008"}], "nodes" : [{"mesh" : 0, "name" : "cartoon gift box"}], "samplers" : [{"magFilter" : 9729, "minFilter" : 9729, "wrapS" : 10497, "wrapT" : 10497}, {"magFilter" : 9729, "minFilter" : 9729, "wrapS" : 10497, "wrapT" : 10497}], "scene" : 0, "scenes" : [{"nodes" : [0]}], "textures" : [{"sampler" : 0, "source" : 0, "name" : "normalmap_texture"}, {"sampler" : 1, "source" : 1, "name" : "base_color_texture"}]}